<svg width="32" height="32" viewBox="0 0 32 32" fill="none" xmlns="http://www.w3.org/2000/svg">
  <rect width="32" height="32" rx="8" fill="#2D52BD"/>
  <path d="M16 7C10.4772 7 6 11.4772 6 17C6 22.5228 10.4772 27 16 27C21.5228 27 26 22.5228 26 17C26 11.4772 21.5228 7 16 7ZM16 9C20.4183 9 24 12.5817 24 17C24 21.4183 20.4183 25 16 25C11.5817 25 8 21.4183 8 17C8 12.5817 11.5817 9 16 9Z" fill="white"/>
  <path d="M16 11C12.6863 11 10 13.6863 10 17C10 20.3137 12.6863 23 16 23C19.3137 23 22 20.3137 22 17C22 13.6863 19.3137 11 16 11ZM16 13C18.2091 13 20 14.7909 20 17C20 19.2091 18.2091 21 16 21C13.7909 21 12 19.2091 12 17C12 14.7909 13.7909 13 16 13Z" fill="white"/>
  <path d="M16 15C14.8954 15 14 15.8954 14 17C14 18.1046 14.8954 19 16 19C17.1046 19 18 18.1046 18 17C18 15.8954 17.1046 15 16 15Z" fill="white"/>
</svg>